<svg xmlns="http://www.w3.org/2000/svg" width="17.171" height="15.85" viewBox="0 0 17.171 15.85">
  <g id="Icon_ionic-ios-calendar" data-name="Icon ionic-ios-calendar" transform="translate(-3.375 -4.5)">
    <path id="Path_4" data-name="Path 4" d="M18.895,6.75H17.244v.927a.321.321,0,0,1-.33.309h-.66a.321.321,0,0,1-.33-.309V6.75H8v.927a.321.321,0,0,1-.33.309h-.66a.321.321,0,0,1-.33-.309V6.75H5.026A1.606,1.606,0,0,0,3.375,8.3V18.8A1.606,1.606,0,0,0,5.026,20.35H18.895A1.606,1.606,0,0,0,20.546,18.8V8.3A1.606,1.606,0,0,0,18.895,6.75Zm.33,11.591a.8.8,0,0,1-.826.773H5.521a.8.8,0,0,1-.826-.773V11.386a.321.321,0,0,1,.33-.309H18.895a.321.321,0,0,1,.33.309Z" fill="#333"/>
    <path id="Path_5" data-name="Path 5" d="M11.25,5.063a.564.564,0,0,0-.562-.562H9.563A.564.564,0,0,0,9,5.063V6.75h2.25Z" transform="translate(-2.516)" fill="#333"/>
    <path id="Path_6" data-name="Path 6" d="M27,5.063a.564.564,0,0,0-.562-.562H25.313a.564.564,0,0,0-.562.563V6.75H27Z" transform="translate(-9.563)" fill="#333"/>
  </g>
</svg>
